<svg xmlns="http://www.w3.org/2000/svg" width="315" height="295.87" viewBox="0 0 315 295.87"><defs><style>.a,.f,.m{fill:#2488ff;}.b,.d,.e{fill:#fff;}.b{opacity:0.9;}.c{fill:#f5f5f5;}.d,.l,.m{opacity:0.3;}.f{opacity:0.6;}.g{fill:#263238;}.h{fill:#ff8b7b;}.i{fill:#ff5652;}.j{opacity:0.2;}.k{opacity:0.4;}</style></defs><g transform="translate(-56.11 -63.33)"><g transform="translate(57.297 77.185)"><path class="a" d="M337.234,156.69c-5.524,44.044-44.109,88.014-86.544,116.332C141.028,346.8,35.012,221.61,61.754,176.649c20.072-45.6,82.686-33.078,109.322-51.005C320.777,24.169,342.425,119.827,337.234,156.69Z" transform="translate(-57.571 -80.386)"/><path class="b" d="M337.234,156.69c-5.524,44.044-44.109,88.014-86.544,116.332C141.028,346.8,35.012,221.61,61.754,176.649c20.072-45.6,82.686-33.078,109.322-51.005C320.777,24.169,342.425,119.827,337.234,156.69Z" transform="translate(-57.571 -80.386)"/></g><g transform="translate(56.11 340.809)"><ellipse class="c" cx="157.5" cy="9.195" rx="157.5" ry="9.195"/></g><g transform="translate(91.917 113.905)"><path class="a" d="M221.851,318.189H106.5L100.19,132.68H215.539Z" transform="translate(-100.19 -126.921)"/><path class="a" d="M228.939,311.1H113.59L107.27,125.59H222.619Z" transform="translate(-101.519 -125.59)"/><path class="d" d="M228.939,311.1H113.59L107.27,125.59H222.619Z" transform="translate(-101.519 -125.59)"/><ellipse class="a" cx="31.9" cy="33.004" rx="31.9" ry="33.004" transform="matrix(0.701, -0.713, 0.713, 0.701, 19.336, 52.81)"/><path class="e" d="M201.091,184.9a25.994,25.994,0,0,1-2.8,12.753,25.661,25.661,0,0,1-23.07,14.021,27.83,27.83,0,0,1-24.012-14.021,27.2,27.2,0,0,1-3.672-12.753A25.7,25.7,0,0,1,173.4,158.09,27.911,27.911,0,0,1,201.091,184.9Z" transform="translate(-109.071 -131.69)"/><path class="f" d="M199.122,205.14a25.661,25.661,0,0,1-23.07,14.021A27.83,27.83,0,0,1,152.04,205.14,41.1,41.1,0,0,1,175.354,198a43.443,43.443,0,0,1,23.768,7.14Z" transform="translate(-109.921 -139.18)"/><ellipse class="f" cx="11.73" cy="12.136" rx="11.73" ry="12.136" transform="matrix(0.701, -0.713, 0.713, 0.701, 48.049, 43.887)"/><path class="e" d="M211.405,267.882h-73.58l-.5-14.622h73.58Z" transform="translate(-107.161 -149.552)"/><path class="e" d="M212.5,300.052H138.916l-.5-14.622h73.588Z" transform="translate(-107.365 -155.589)"/><path class="a" d="M190.31,287.907l-17.733,2.437a1.235,1.235,0,0,0-1.072,1.462l2.331,11.884a1.43,1.43,0,0,0,1.576,1.113l17.733-2.437a1.243,1.243,0,0,0,1.064-1.47l-2.323-11.884a1.422,1.422,0,0,0-1.576-1.1Zm-5.093,12.039-3.249.431-.317-3.834a2.274,2.274,0,0,1-1.324-1.625,2.023,2.023,0,0,1,1.755-2.437,2.323,2.323,0,0,1,2.567,1.811,1.99,1.99,0,0,1-.634,1.893Z" transform="translate(-113.57 -156.052)"/><path class="a" d="M188.721,284.855h0a1.267,1.267,0,0,1-1.4-.983l-.227-1.162a6.685,6.685,0,0,0-7-5.329,5.686,5.686,0,0,0-5.248,6.815l.26,1.34a1.089,1.089,0,0,1-.95,1.3h0a1.251,1.251,0,0,1-1.4-.983l-.219-1.129a8,8,0,0,1,6.5-9.545,9.1,9.1,0,0,1,10.4,7.043l.26,1.332a1.088,1.088,0,0,1-.975,1.3Z" transform="translate(-113.736 -153.642)"/><path class="a" d="M203.529,326.44h-47.9l-.317-9.52H203.2Z" transform="translate(-110.535 -161.5)"/><path class="g" d="M184.983,261.643a2.567,2.567,0,0,1-2.583,2.673,2.794,2.794,0,0,1-2.77-2.673,2.567,2.567,0,0,1,2.583-2.673,2.786,2.786,0,0,1,2.77,2.673Z" transform="translate(-115.099 -150.623)"/><path class="g" d="M170.765,261.643a2.559,2.559,0,0,1-2.583,2.673,2.786,2.786,0,0,1-2.762-2.673A2.567,2.567,0,0,1,168,258.97a2.778,2.778,0,0,1,2.762,2.673Z" transform="translate(-112.432 -150.623)"/><path class="g" d="M156.635,261.643a2.567,2.567,0,0,1-2.583,2.673,2.778,2.778,0,0,1-2.762-2.673,2.567,2.567,0,0,1,2.583-2.673A2.778,2.778,0,0,1,156.635,261.643Z" transform="translate(-109.78 -150.623)"/><path class="g" d="M199.155,261.648a2.567,2.567,0,0,1-2.583,2.672,2.778,2.778,0,0,1-2.762-2.672A2.559,2.559,0,0,1,196.4,259,2.778,2.778,0,0,1,199.155,261.648Z" transform="translate(-117.761 -150.629)"/><path class="g" d="M213.325,261.643a2.559,2.559,0,0,1-2.583,2.673,2.786,2.786,0,0,1-2.762-2.673,2.567,2.567,0,0,1,2.583-2.672,2.778,2.778,0,0,1,2.762,2.673Z" transform="translate(-120.42 -150.623)"/></g><g transform="translate(234.991 115.497)"><path class="h" d="M332.2,174.28c1.08,1.738,1.982,3.4,2.908,5.126s1.763,3.469,2.583,5.248a75.032,75.032,0,0,1,4.143,11.153c.146.479.252.991.374,1.487l.179.755.089.374.106.617a11.113,11.113,0,0,1-.252,4.192,23.753,23.753,0,0,1-2.534,6.052,48.106,48.106,0,0,1-7.213,9.447l-3.42-2.583a90.49,90.49,0,0,0,4.573-9.748,20.2,20.2,0,0,0,1.243-4.573,3.622,3.622,0,0,0-.065-1.438l-.325-.991c-.13-.406-.252-.812-.406-1.227a92.123,92.123,0,0,0-4.281-9.813c-1.625-3.249-3.371-6.5-5.118-9.6Z" transform="translate(-285.416 -136.32)"/><path class="h" d="M330.377,224.43,326.64,226.4l4.289,5.02s2.681-1.811,2.8-4.573Z" transform="translate(-285.765 -145.733)"/><path class="h" d="M320.47,229.955l4.59,3.647,4.711-1.722-4.289-5.02Z" transform="translate(-284.607 -146.189)"/><path class="g" d="M300.9,141.342c-.089.455-.406.772-.7.715s-.463-.479-.374-.926.406-.812.707-.715S300.986,140.887,300.9,141.342Z" transform="translate(-280.728 -129.962)"/><path class="i" d="M300.021,142.52a16.458,16.458,0,0,1-2.941,3.428,2.672,2.672,0,0,0,2.08.812Z" transform="translate(-280.217 -130.36)"/><path class="h" d="M298.9,160.909V155.58l7.051.812s-.114,4.581-4.062,5.93Z" transform="translate(-280.559 -132.811)"/><path class="h" d="M300.938,150.86l4.963,1.43.089,3.257-7.051-.853Z" transform="translate(-280.566 -131.925)"/><path class="j" d="M306.14,152.29l-4.963-1.43-.967,1.852a7.9,7.9,0,0,0,4.582,6.888,7.766,7.766,0,0,0,1.438-4.062Z" transform="translate(-280.804 -131.925)"/><path class="g" d="M303.272,138.575a.276.276,0,0,0,.2-.455,2.7,2.7,0,0,0-2.307-.894.268.268,0,0,0-.219.309.276.276,0,0,0,.309.227h0a2.136,2.136,0,0,1,1.82.723.276.276,0,0,0,.195.089Z" transform="translate(-280.942 -129.363)"/><path class="h" d="M313.687,151.68c-.812,4.183-1.316,9.975,1.625,12.762,0,0-1.137,4.24-8.935,4.24-8.537,0-4.1-3.72-4.1-3.72,3.55-1.1,3.517-5.142,2.705-8.391Z" transform="translate(-280.976 -132.079)"/><path class="a" d="M316.963,169.485c.764-1.072.731-4.476-.081-5.077-1.308-.967-6.921-1.194-14.467.544a5.311,5.311,0,0,1-.934,5.02Z" transform="translate(-281.043 -134.328)"/><path class="a" d="M351.429,407.96a1.86,1.86,0,0,1-1.43-.081.552.552,0,0,1-.13-.626.626.626,0,0,1,.349-.4c.772-.374,2.543.349,2.624.382a.13.13,0,0,1,.081.122.155.155,0,0,1-.073.13A7.982,7.982,0,0,1,351.429,407.96Zm-.934-.918a.681.681,0,0,0-.154.057.341.341,0,0,0-.211.227c-.073.244,0,.325.049.349.309.26,1.446,0,2.25-.3A4.46,4.46,0,0,0,350.495,407.042Z" transform="translate(-290.116 -179.951)"/><path class="a" d="M353.022,407.14h-.065c-.65-.187-2.031-1.17-2.047-1.811a.447.447,0,0,1,.349-.439.7.7,0,0,1,.593.049c.764.39,1.251,1.966,1.267,2.039a.13.13,0,0,1,0,.13A.114.114,0,0,1,353.022,407.14Zm-1.625-2.023h-.065c-.162.057-.162.138-.162.179,0,.382.926,1.154,1.625,1.462a3.383,3.383,0,0,0-1.04-1.625.471.471,0,0,0-.349-.016Z" transform="translate(-290.32 -179.594)"/><path class="a" d="M299.452,409.1c-.731,0-1.438-.106-1.673-.431a.512.512,0,0,1,0-.593.674.674,0,0,1,.431-.317c.95-.26,2.949.877,3.03.926a.122.122,0,0,1,.065.138.13.13,0,0,1-.106.114,9.913,9.913,0,0,1-1.746.162Zm-.9-1.113a.813.813,0,0,0-.26,0,.414.414,0,0,0-.268.187c-.1.171-.057.252,0,.3.268.374,1.706.382,2.77.227A6.182,6.182,0,0,0,298.55,407.989Z" transform="translate(-280.33 -180.134)"/><path class="a" d="M301.535,408.625h-.057c-.69-.309-2.055-1.543-1.95-2.193,0-.154.13-.341.5-.374a.975.975,0,0,1,.747.227,3.883,3.883,0,0,1,.894,2.2.162.162,0,0,1-.057.122.155.155,0,0,1-.081.016Zm-1.4-2.315h-.081c-.244,0-.26.114-.26.146-.065.39.861,1.365,1.568,1.787a3.144,3.144,0,0,0-.755-1.763.715.715,0,0,0-.479-.171Z" transform="translate(-280.675 -179.82)"/><path class="h" d="M308.269,406h-5.711l-.569-13.233H307.7Z" transform="translate(-281.138 -177.327)"/><path class="h" d="M358.764,402.953l-5.581,1.21L347.57,391.84l5.589-1.21Z" transform="translate(-289.693 -176.926)"/><path class="g" d="M351.934,406.284l6.279-1.357a.5.5,0,0,1,.552.276l2.177,4.728a.812.812,0,0,1-.6,1.17c-2.193.431-3.29.536-6.044,1.129-1.7.374-5.532,1.308-7.879,1.811s-3.152-1.746-2.234-2.161c4.1-1.876,5.808-3.525,6.921-5.061A1.39,1.39,0,0,1,351.934,406.284Z" transform="translate(-288.988 -179.607)"/><path class="g" d="M299.554,408.24h6.239a.5.5,0,0,1,.487.39l1.129,5.077a.812.812,0,0,1-.812,1.024c-2.25-.041-5.5-.171-8.326-.171-3.314,0-6.166.179-10.048.179-2.348,0-3-2.372-2.015-2.591,4.468-.975,8.123-1.08,11.982-3.461a2.657,2.657,0,0,1,1.365-.447Z" transform="translate(-278.093 -180.231)"/><path class="a" d="M329.507,168.964c5.353,1.227,9.748,14.9,9.748,14.9l-10.7,8.18a23.5,23.5,0,0,1-5.686-10.56C320.977,174.317,324.032,167.7,329.507,168.964Z" transform="translate(-284.952 -135.293)"/><path class="k" d="M329.507,168.964c5.353,1.227,9.748,14.9,9.748,14.9l-10.7,8.18a23.5,23.5,0,0,1-5.686-10.56C320.977,174.317,324.032,167.7,329.507,168.964Z" transform="translate(-284.952 -135.293)"/><path class="h" d="M292.713,183.455c-1.332,1.438-2.664,2.721-4.062,4.062-.69.65-1.389,1.3-2.1,1.925l-1.08.95-.268.236-.463.374a6.5,6.5,0,0,1-1.568.926,5.11,5.11,0,0,1-1.982.406,4.873,4.873,0,0,1-1.706-.3A4.8,4.8,0,0,1,277.855,191a4.874,4.874,0,0,1-1.267-2.1,5.539,5.539,0,0,1-.236-1.21,8.207,8.207,0,0,1,0-1.446c.041-.39.089-.731.154-1.048a20.12,20.12,0,0,1,.942-3.249A29.1,29.1,0,0,1,278.708,179c.52-1.032,1.015-1.787,1.511-2.648a66.33,66.33,0,0,1,6.864-9.309,62.892,62.892,0,0,1,8.326-7.9l2.989,3.079c-2.1,2.811-4.159,5.824-6.068,8.789a95.238,95.238,0,0,0-5.2,9.139c-.349.764-.812,1.625-1.032,2.242a21.777,21.777,0,0,0-.755,2.193,14.171,14.171,0,0,0-.463,2.047,3.188,3.188,0,0,0,0,.325v-.073a2.256,2.256,0,0,0-.106-.536,3.484,3.484,0,0,0-.934-1.511,3.98,3.98,0,0,0-1.34-.812,3.883,3.883,0,0,0-1.365-.252,3.314,3.314,0,0,0-1.308.252,2.988,2.988,0,0,0-.406.2l.309-.284.983-.894,1.941-1.82c1.283-1.21,2.575-2.5,3.794-3.7Z" transform="translate(-276.321 -133.481)"/><path class="j" d="M324.972,181.36c2.908,2.876,3.858,8.123,4.062,12.672l-.471.366a23.5,23.5,0,0,1-5.686-10.56c-.106-.422-.2-.812-.276-1.275Z" transform="translate(-285.007 -137.649)"/><path class="a" d="M289.284,174.335c-1.17,6.174-1.9,18.854,1.487,43.954h30.592c.211-4.687-2.737-27.578,1.787-49.681a80.421,80.421,0,0,0-10.235-1.292,113.507,113.507,0,0,0-13,0c-1.43.13-2.843.341-4.062.561A8.123,8.123,0,0,0,289.284,174.335Z" transform="translate(-278.57 -134.979)"/><path class="k" d="M289.284,174.335c-1.17,6.174-1.9,18.854,1.487,43.954h30.592c.211-4.687-2.737-27.578,1.787-49.681a80.421,80.421,0,0,0-10.235-1.292,113.507,113.507,0,0,0-13,0c-1.43.13-2.843.341-4.062.561A8.123,8.123,0,0,0,289.284,174.335Z" transform="translate(-278.57 -134.979)"/><path class="j" d="M293.964,186.964l-5.524-1.324c-.171,3.347-.187,7.49.057,12.615C291.04,195.363,294.289,190.847,293.964,186.964Z" transform="translate(-278.572 -138.453)"/><path class="j" d="M301.99,392.77l.292,6.823H308l-.292-6.823Z" transform="translate(-281.138 -177.327)"/><path class="j" d="M353.159,390.63l-5.589,1.21,2.892,6.352,5.589-1.21Z" transform="translate(-289.693 -176.926)"/><path class="h" d="M316,141.9c-1.462,5.475-2.047,8.757-5.426,11.031-5.077,3.46-11.413-.5-11.576-6.287-.179-5.223,2.25-13.306,8.123-14.41A7.733,7.733,0,0,1,316,141.9Z" transform="translate(-280.575 -128.403)"/><path class="g" d="M303.954,142.435c-.276-.731-1.535-6.393-.349-7.863s14.711-.406,16.709,1.56c3.322,3.249,1.015,6.174-2.616,9.935-2.729,2.827-2.835,6.011-4.216,6.5-2.437.812-6.157.049-6.9-2.526S303.954,142.435,303.954,142.435Z" transform="translate(-281.348 -128.739)"/><path class="g" d="M317.977,128.5c-4.776-2.031-13.736.219-18.578-.95a7.457,7.457,0,0,0,6.182,7.6,63.889,63.889,0,0,0,12.185,1.129C323.078,136.039,322.038,130.231,317.977,128.5Z" transform="translate(-280.651 -127.55)"/><path class="g" d="M323.19,136.637a9.106,9.106,0,0,0,5.061-.967C329.144,137.831,324.23,138.424,323.19,136.637Z" transform="translate(-285.117 -129.074)"/><path class="h" d="M306.324,144.142a6.426,6.426,0,0,1-1.625,3.794c-1.251,1.373-2.551.512-2.77-1.154-.195-1.511.211-4.062,1.738-4.793S306.43,142.444,306.324,144.142Z" transform="translate(-281.119 -130.219)"/><path class="a" d="M304.69,230.136s6.5,43.662,10.048,60.022c3.891,17.912,24.8,77.17,24.8,77.17l10.227-2.218s-14.622-48.3-17.871-73.344c-2.518-19.236-7.465-61.647-7.465-61.647Z" transform="translate(-281.645 -146.801)"/><path class="g" d="M344.57,394.32c-.041,0,1.909,3.7,1.909,3.7l11.5-2.494-.967-3.461Z" transform="translate(-289.13 -177.196)"/><path class="l" d="M309.35,249.276c7.5,1.47,6.7,29.43,5.8,43.816-2.161-10.17-5.329-29.731-7.49-43.613A2.559,2.559,0,0,1,309.35,249.276Z" transform="translate(-282.203 -150.384)"/><path class="a" d="M291.244,230.133s-.812,42.72-.162,60.111c.65,18.123,6.978,77.462,6.978,77.462h9.683s.349-58.284.812-76.082c.471-19.4,2.811-61.525,2.811-61.525Z" transform="translate(-279.044 -146.797)"/><path class="g" d="M297.439,394.8c-.049,0,.544,4.013.544,4.013h11.77l.325-3.582Z" transform="translate(-280.284 -177.708)"/><path class="a" d="M299.554,176.424c2.737,7.384-13.354,16.084-13.354,16.084l-6.97-8.935s4.687-9.277,10.373-13.452C296.63,164.97,297.467,170.8,299.554,176.424Z" transform="translate(-276.867 -135.166)"/><path class="k" d="M299.554,176.424c2.737,7.384-13.354,16.084-13.354,16.084l-6.97-8.935s4.687-9.277,10.373-13.452C296.63,164.97,297.467,170.8,299.554,176.424Z" transform="translate(-276.867 -135.166)"/></g><g transform="translate(277.588 63.33)"><ellipse class="a" cx="29.316" cy="18.683" rx="29.316" ry="18.683" transform="translate(13.826)"/><path class="e" d="M366.963,94.109a8.213,8.213,0,0,1-8.066-6.815,8.3,8.3,0,0,1,6.263-9.358h0a8.172,8.172,0,0,1,8.789,3.672l18.821-3.883a2.941,2.941,0,0,1,3.444,2.023,2.835,2.835,0,0,1-2.169,3.5l-.487.1a.479.479,0,0,0-.341.252.512.512,0,0,0,0,.422l.333.861a1.292,1.292,0,0,1-.5,1.568,1.543,1.543,0,0,0-.723,1.145,1.275,1.275,0,0,1-.983,1.129l-.382.081a1.267,1.267,0,0,1-1.348-.65,1.584,1.584,0,0,0-2.932.609,1.259,1.259,0,0,1-.975,1.121l-.382.081a1.275,1.275,0,0,1-1.348-.65,1.624,1.624,0,0,0-1.129-.764,1.292,1.292,0,0,1-1.137-1.275v-.926a.5.5,0,0,0-.6-.471l-6,1.235a8.18,8.18,0,0,1-6.458,6.823,8.415,8.415,0,0,1-1.681.171Zm-1.625-15.434a7.481,7.481,0,0,0-5.686,8.464,7.4,7.4,0,0,0,14.622-.422v-.292l6.62-1.34a1.316,1.316,0,0,1,1.625,1.235v.926a.479.479,0,0,0,.39.463,2.364,2.364,0,0,1,1.714,1.162.471.471,0,0,0,.479.26l.374-.081a.455.455,0,0,0,.341-.422,2.4,2.4,0,0,1,4.468-.942.463.463,0,0,0,.471.26l.39-.081a.455.455,0,0,0,.333-.422,2.356,2.356,0,0,1,1.113-1.746.5.5,0,0,0,.171-.585l-.333-.861a1.308,1.308,0,0,1,.959-1.755l.5-.106a2.039,2.039,0,0,0,1.552-2.494,2.12,2.12,0,0,0-2.5-1.438l-19.349,4.021-.146-.252a7.311,7.311,0,0,0-8.058-3.534Zm1.625,12.412a4.995,4.995,0,1,1,1.056-.065h0a5.176,5.176,0,0,1-1.048.081Zm0-9.593a4.873,4.873,0,0,0-.9.089A4.406,4.406,0,0,0,367.9,90.2h0a4.395,4.395,0,0,0,1.527-7.969A4.321,4.321,0,0,0,367,81.51Z" transform="translate(-334.397 -66.019)"/><ellipse class="f" cx="9.634" cy="6.141" rx="9.634" ry="6.141" transform="translate(9.65 36.042)"/><ellipse class="m" cx="3.956" cy="2.518" rx="3.956" ry="2.518" transform="translate(0 45.807)"/></g></g></svg>